<svg width="15" height="15" viewBox="0 0 15 15" fill="none" xmlns="http://www.w3.org/2000/svg">
<path d="M14.4 7.00742L14.4 7.00907C14.4026 7.95087 14.1704 8.88137 13.7205 9.72514L13.7193 9.72746C13.185 10.7402 12.3613 11.5965 11.3362 12.1971C10.311 12.7977 9.12671 13.1175 7.91643 13.1179L7.91517 13.1179C6.90443 13.1204 5.90855 12.8967 5.00898 12.4662C4.87165 12.4005 4.71448 12.3894 4.56931 12.4353L0.964624 13.5736L2.14932 10.2066C2.20509 10.0481 2.19184 9.87342 2.11278 9.72514C1.66291 8.88137 1.43074 7.95087 1.43333 7.00907L1.43333 7.00767C1.43379 5.88 1.7655 4.77233 2.39469 3.80846C3.02411 2.84424 3.92739 2.06077 5.00675 1.54971L5.00676 1.54971L5.00898 1.54865C5.90855 1.11819 6.90443 0.894399 7.91517 0.896897H7.91665H8.31732C9.91017 0.983718 11.4084 1.62217 12.5283 2.68315C13.6467 3.7427 14.3093 5.14835 14.4 6.63058L14.4 7.00742Z" stroke="#88919D" stroke-width="1.2" stroke-linecap="round" stroke-linejoin="round"/>
</svg>
