<svg width="16" height="16" viewBox="0 0 16 16" fill="none" xmlns="http://www.w3.org/2000/svg">
<path fill-rule="evenodd" clip-rule="evenodd" d="M13.2304 3.72962C13.2304 4.25987 12.8005 4.68962 12.2704 4.68962C11.7403 4.68962 11.3104 4.25987 11.3104 3.72962C11.3104 3.19937 11.7403 2.76962 12.2704 2.76962C12.8006 2.76962 13.2304 3.19937 13.2304 3.72962ZM8 10.6666C6.52725 10.6666 5.33337 9.47275 5.33337 8C5.33337 6.52725 6.52725 5.33337 8 5.33337C9.47275 5.33337 10.6666 6.52725 10.6666 8C10.6666 9.47275 9.47275 10.6666 8 10.6666ZM8 3.89188C5.73112 3.89188 3.89188 5.73112 3.89188 8C3.89188 10.2689 5.73112 12.1081 8 12.1081C10.2689 12.1081 12.1081 10.2689 12.1081 8C12.1081 5.73112 10.2689 3.89188 8 3.89188ZM8 1.4415C10.1361 1.4415 10.3891 1.44963 11.2326 1.48812C12.0126 1.52375 12.4363 1.654 12.7181 1.76363C13.0915 1.90875 13.358 2.08212 13.638 2.36212C13.918 2.642 14.0914 2.9085 14.2365 3.282C14.346 3.56388 14.4764 3.9875 14.512 4.7675C14.5505 5.61112 14.5586 5.86412 14.5586 8.00025C14.5586 10.1364 14.5505 10.3894 14.512 11.2329C14.4764 12.0129 14.3461 12.4365 14.2365 12.7184C14.0914 13.0918 13.918 13.3583 13.638 13.6383C13.3581 13.9183 13.0916 14.0916 12.7181 14.2367C12.4363 14.3462 12.0126 14.4766 11.2326 14.5122C10.3891 14.5507 10.1361 14.5589 8 14.5589C5.86375 14.5589 5.61075 14.5507 4.76725 14.5122C3.98725 14.4766 3.56362 14.3464 3.28175 14.2367C2.90838 14.0916 2.64188 13.9183 2.36188 13.6383C2.082 13.3584 1.9085 13.0919 1.76338 12.7184C1.65387 12.4365 1.5235 12.0129 1.48787 11.2329C1.44938 10.3892 1.44125 10.1362 1.44125 8.00025C1.44125 5.86412 1.44938 5.61112 1.48787 4.7675C1.5235 3.9875 1.65375 3.56388 1.76338 3.282C1.9085 2.90863 2.08188 2.64212 2.36188 2.36212C2.64175 2.08212 2.90825 1.90875 3.28175 1.76363C3.56362 1.65412 3.98725 1.52375 4.76725 1.48812C5.61088 1.44963 5.86387 1.4415 8 1.4415ZM8 0C5.82737 0 5.55487 0.00925 4.70162 0.048125C3.85012 0.087 3.2685 0.22225 2.75975 0.42C2.23362 0.624375 1.7875 0.898 1.34275 1.34275C0.898 1.7875 0.624375 2.23362 0.42 2.75975C0.22225 3.26862 0.087 3.85012 0.048125 4.70162C0.00925 5.55487 0 5.82737 0 8C0 10.1726 0.00925 10.4451 0.048125 11.2984C0.087 12.1499 0.22225 12.7314 0.42 13.2402C0.624375 13.7664 0.898 14.2125 1.34275 14.6573C1.7875 15.102 2.23362 15.3755 2.75975 15.58C3.26862 15.7778 3.85012 15.913 4.70162 15.9519C5.55487 15.9907 5.82737 16 8 16C10.1726 16 10.4451 15.9907 11.2984 15.9519C12.1499 15.913 12.7314 15.7778 13.2402 15.58C13.7664 15.3755 14.2125 15.102 14.6573 14.6573C15.102 14.2125 15.3755 13.7664 15.58 13.2402C15.7778 12.7314 15.913 12.1499 15.9519 11.2984C15.9907 10.4451 16 10.1726 16 8C16 5.82737 15.9907 5.55487 15.9519 4.70162C15.913 3.85012 15.7778 3.26862 15.58 2.75975C15.3755 2.23362 15.102 1.7875 14.6573 1.34275C14.2125 0.898 13.7664 0.6245 13.2402 0.42C12.7314 0.22225 12.1499 0.087 11.2984 0.048125C10.4451 0.00925 10.1726 0 8 0Z" fill="url(#paint0_radial_4193_5164)"/>
<defs>
<radialGradient id="paint0_radial_4193_5164" cx="0" cy="0" r="1" gradientUnits="userSpaceOnUse" gradientTransform="translate(2.38889 16.0555) scale(20.444)">
<stop stop-color="#FFB140"/>
<stop offset="0.2559" stop-color="#FF5445"/>
<stop offset="0.599" stop-color="#FC2B82"/>
<stop offset="1" stop-color="#8E40B7"/>
</radialGradient>
</defs>
</svg>
