<svg width="20" height="20" viewBox="0 0 20 20" fill="none" xmlns="http://www.w3.org/2000/svg">
<g clip-path="url(#clip0_4193_5174)">
<path d="M19.894 14.5983C19.8698 14.5461 19.8472 14.5028 19.8262 14.4681C19.4792 13.8431 18.8161 13.076 17.8373 12.1666L17.8166 12.1458L17.8063 12.1356L17.7958 12.1251H17.7853C17.341 11.7016 17.0597 11.4169 16.9419 11.2711C16.7264 10.9934 16.6781 10.7123 16.7959 10.4275C16.8791 10.2123 17.1918 9.75785 17.7331 9.06352C18.0178 8.69555 18.2433 8.40064 18.4099 8.17845C19.611 6.58168 20.1317 5.56132 19.9719 5.11698L19.9099 5.01314C19.8682 4.95063 19.7606 4.89344 19.5872 4.84128C19.4135 4.78924 19.1914 4.78063 18.9206 4.81531L15.9217 4.83603C15.8731 4.81882 15.8037 4.82042 15.7134 4.84128C15.6231 4.86215 15.5779 4.87261 15.5779 4.87261L15.5257 4.89869L15.4843 4.93002C15.4496 4.95074 15.4114 4.98717 15.3697 5.03926C15.3282 5.09116 15.2936 5.15206 15.2658 5.22147C14.9393 6.06147 14.5681 6.84246 14.1515 7.56439C13.8946 7.99488 13.6587 8.36796 13.4433 8.68384C13.2281 8.99962 13.0476 9.23228 12.9019 9.38142C12.756 9.5307 12.6244 9.65029 12.5061 9.74064C12.3881 9.83101 12.298 9.8692 12.2355 9.85523C12.173 9.84126 12.1141 9.8274 12.0583 9.81354C11.9612 9.75103 11.8831 9.66601 11.8242 9.55842C11.765 9.45083 11.7252 9.3154 11.7044 9.15226C11.6836 8.98901 11.6714 8.84859 11.6679 8.73053C11.6646 8.61261 11.6661 8.44583 11.6732 8.23064C11.6804 8.01534 11.6836 7.86967 11.6836 7.7933C11.6836 7.52945 11.6888 7.24311 11.6991 6.93419C11.7096 6.62526 11.7181 6.3805 11.7252 6.20018C11.7323 6.01967 11.7356 5.8287 11.7356 5.62738C11.7356 5.42605 11.7233 5.26816 11.6991 5.15356C11.6752 5.03911 11.6385 4.92801 11.5901 4.82031C11.5414 4.71272 11.4701 4.62949 11.3766 4.5704C11.2829 4.51139 11.1664 4.46456 11.0278 4.42976C10.6598 4.3465 10.1912 4.30145 9.62185 4.29445C8.33069 4.28059 7.50105 4.36397 7.13311 4.54447C6.98733 4.62073 6.85541 4.72494 6.73746 4.85675C6.61247 5.00953 6.59504 5.09291 6.68527 5.10662C7.10186 5.16903 7.39677 5.31831 7.57035 5.55432L7.6329 5.67938C7.68155 5.76962 7.73013 5.92937 7.77875 6.15841C7.8273 6.38746 7.85863 6.64084 7.87241 6.91839C7.90706 7.42525 7.90706 7.85913 7.87241 8.22006C7.83765 8.58114 7.80483 8.86223 7.7735 9.06356C7.74217 9.26489 7.69534 9.42803 7.6329 9.55295C7.57035 9.6779 7.52873 9.75428 7.50787 9.782C7.48704 9.80971 7.46968 9.82719 7.4559 9.83404C7.36566 9.86862 7.27182 9.88623 7.17469 9.88623C7.07742 9.88623 6.95947 9.83758 6.82065 9.74034C6.68188 9.64311 6.53785 9.50955 6.38856 9.33944C6.23928 9.16929 6.07093 8.93153 5.88342 8.62611C5.69606 8.32069 5.50166 7.95972 5.30033 7.5432L5.13376 7.24114C5.02963 7.04681 4.88739 6.76386 4.70689 6.39253C4.52628 6.02106 4.36664 5.66173 4.22786 5.31462C4.17238 5.16884 4.08904 5.05786 3.97799 4.98148L3.92587 4.95015C3.89122 4.92243 3.8356 4.893 3.7593 4.86163C3.68289 4.8303 3.60316 4.80784 3.51978 4.79401L0.666572 4.81473C0.375011 4.81473 0.177184 4.88078 0.073018 5.0127L0.0313299 5.07511C0.0105041 5.10987 0 5.16538 0 5.24179C0 5.31816 0.0208258 5.4119 0.0625139 5.52288C0.47903 6.5018 0.931983 7.44589 1.42137 8.3553C1.91076 9.26471 2.33603 9.99726 2.69692 10.5523C3.05789 11.1077 3.42583 11.632 3.80073 12.1247C4.17563 12.6176 4.42379 12.9335 4.54521 13.0723C4.66677 13.2113 4.76225 13.3153 4.83166 13.3847L5.09204 13.6346C5.25865 13.8012 5.5033 14.0008 5.82612 14.2333C6.14901 14.4659 6.50648 14.695 6.89871 14.9208C7.291 15.1462 7.74739 15.3302 8.2681 15.4725C8.78875 15.6149 9.2955 15.6721 9.78842 15.6445H10.986C11.2288 15.6235 11.4128 15.5471 11.5379 15.4153L11.5793 15.3631C11.6072 15.3217 11.6333 15.2573 11.6573 15.1707C11.6817 15.0839 11.6938 14.9883 11.6938 14.8844C11.6867 14.5859 11.7094 14.3169 11.7614 14.0774C11.8133 13.838 11.8724 13.6575 11.9386 13.536C12.0047 13.4145 12.0793 13.312 12.1624 13.2289C12.2456 13.1457 12.3049 13.0952 12.3397 13.0779C12.3743 13.0604 12.4019 13.0485 12.4227 13.0414C12.5893 12.9859 12.7854 13.0397 13.0112 13.203C13.2369 13.3661 13.4486 13.5676 13.6465 13.807C13.8444 14.0466 14.0821 14.3154 14.3597 14.6139C14.6376 14.9124 14.8805 15.1344 15.0886 15.2804L15.2968 15.4053C15.4359 15.4887 15.6164 15.5651 15.8386 15.6345C16.0604 15.7039 16.2547 15.7212 16.4215 15.6865L19.0872 15.645C19.3509 15.645 19.556 15.6013 19.7015 15.5147C19.8474 15.4279 19.934 15.3323 19.9619 15.2283C19.9898 15.1242 19.9913 15.0061 19.9672 14.8741C19.9425 14.7424 19.9182 14.6503 19.894 14.5983Z" fill="#4A76A8"/>
</g>
<defs>
<clipPath id="clip0_4193_5174">
<rect width="20" height="20" fill="white"/>
</clipPath>
</defs>
</svg>
