<svg width="18" height="18" viewBox="0 0 18 18" fill="none" xmlns="http://www.w3.org/2000/svg">
<path d="M17.8144 5.16319C17.8144 5.16319 17.6389 3.83963 17.0994 3.25688C16.4149 2.493 15.6482 2.4885 15.2966 2.44519C12.7783 2.25 9.00113 2.25 9.00113 2.25H8.99269C8.99269 2.25 5.2155 2.25 2.69775 2.44519C2.34619 2.4885 1.58006 2.493 0.894937 3.25688C0.356062 3.83963 0.18 5.16319 0.18 5.16319C0.18 5.16319 0 6.71625 0 8.26931V9.72506C0 11.2793 0.18 12.8317 0.18 12.8317C0.18 12.8317 0.3555 14.1547 0.894937 14.7364C1.58006 15.5002 2.47837 15.4772 2.87888 15.5571C4.31831 15.7044 8.99719 15.75 8.99719 15.75C8.99719 15.75 12.7783 15.7432 15.2966 15.5503C15.6482 15.5053 16.4149 15.5008 17.0994 14.7369C17.6383 14.1553 17.8144 12.8323 17.8144 12.8323C17.8144 12.8323 17.9944 11.2793 17.9944 9.72563V8.26987C17.9944 6.71625 17.8144 5.16319 17.8144 5.16319Z" fill="#E02F2F"/>
<path d="M6.75 5.625V12.375L12.375 9L6.75 5.625Z" fill="white"/>
</svg>
