<svg width="17" height="16" viewBox="0 0 17 16" fill="none" xmlns="http://www.w3.org/2000/svg">
<path d="M15.99 5.92179C15.9141 5.68263 15.712 5.50821 15.4686 5.47183L10.7231 4.76279L8.60106 0.368253C8.49219 0.142759 8.2675 0 8.0215 0C7.7755 0 7.55085 0.142759 7.44194 0.368253L5.31991 4.76279L0.574361 5.47183C0.330986 5.50821 0.128893 5.68263 0.0530182 5.92179C-0.0228566 6.16096 0.0406745 6.42342 0.216862 6.59885L3.6502 10.0172L2.83992 14.8464C2.79832 15.0943 2.89804 15.3448 3.09707 15.4926C3.2961 15.6404 3.55998 15.6599 3.77776 15.5429L8.02147 13.2615L12.2652 15.5428C12.3598 15.5937 12.463 15.6188 12.566 15.6188C12.6999 15.6188 12.8333 15.5762 12.9459 15.4926C13.1449 15.3448 13.2446 15.0943 13.203 14.8464L12.3928 10.0171L15.8261 6.59882C16.0023 6.42342 16.0658 6.16099 15.99 5.92179Z" fill="#FEDD2E"/>
</svg>
